<svg xmlns="http://www.w3.org/2000/svg" width="600" height="160" viewBox="0 0 600 160">
<rect x="0" y="0" width="120" height="80" fill="#000000"/><text x="8" y="24" font-family="Montserrat, Arial" font-size="14" fill="#000">#000000</text><rect x="120" y="0" width="120" height="80" fill="#010101"/><text x="128" y="24" font-family="Montserrat, Arial" font-size="14" fill="#000">#010101</text><rect x="240" y="0" width="120" height="80" fill="#1D2C45"/><text x="248" y="24" font-family="Montserrat, Arial" font-size="14" fill="#000">#1D2C45</text><rect x="360" y="0" width="120" height="80" fill="#003A56"/><text x="368" y="24" font-family="Montserrat, Arial" font-size="14" fill="#000">#003A56</text><rect x="480" y="0" width="120" height="80" fill="#003A57"/><text x="488" y="24" font-family="Montserrat, Arial" font-size="14" fill="#000">#003A57</text><rect x="0" y="80" width="120" height="80" fill="#003B57"/><text x="8" y="104" font-family="Montserrat, Arial" font-size="14" fill="#000">#003B57</text><rect x="120" y="80" width="120" height="80" fill="#304B3B"/><text x="128" y="104" font-family="Montserrat, Arial" font-size="14" fill="#000">#304B3B</text><rect x="240" y="80" width="120" height="80" fill="#493ADF"/><text x="248" y="104" font-family="Montserrat, Arial" font-size="14" fill="#000">#493ADF</text><rect x="360" y="80" width="120" height="80" fill="#544E11"/><text x="368" y="104" font-family="Montserrat, Arial" font-size="14" fill="#000">#544E11</text><rect x="480" y="80" width="120" height="80" fill="#655720"/><text x="488" y="104" font-family="Montserrat, Arial" font-size="14" fill="#000">#655720</text>
</svg>